<svg width="238" height="224" viewBox="0 0 238 224" fill="none" xmlns="http://www.w3.org/2000/svg">
<path d="M233.933 64.6667C219.933 3.0667 166.2 -24.6666 119 -24.6666C119 -24.6666 119 -24.6666 118.867 -24.6666C71.8 -24.6666 17.9333 2.93337 3.93332 64.5334C-11.6667 133.333 30.4667 191.6 68.6 228.267C82.7333 241.867 100.867 248.667 119 248.667C137.133 248.667 155.267 241.867 169.267 228.267C207.4 191.6 249.533 133.467 233.933 64.6667ZM119 131.467C95.8 131.467 77 112.667 77 89.4667C77 66.2667 95.8 47.4667 119 47.4667C142.2 47.4667 161 66.2667 161 89.4667C161 112.667 142.2 131.467 119 131.467Z" fill="white" fill-opacity="0.8"/>
</svg>
