<svg width="40" height="40" viewBox="0 0 40 40" fill="none" xmlns="http://www.w3.org/2000/svg">
<rect width="40" height="40" rx="20" fill="#F0F0F0"/>
<path d="M24.5 14H21.5C20.9477 14 20.5 14.4477 20.5 15V18H24.5C24.6137 17.9975 24.7216 18.0504 24.7892 18.1419C24.8568 18.2334 24.8758 18.352 24.84 18.46L24.1 20.66C24.0318 20.8619 23.8431 20.9984 23.63 21H20.5V28.5C20.5 28.7761 20.2761 29 20 29H17.5C17.2239 29 17 28.7761 17 28.5V21H15.5C15.2239 21 15 20.7761 15 20.5V18.5C15 18.2239 15.2239 18 15.5 18H17V15C17 12.7909 18.7909 11 21 11H24.5C24.7761 11 25 11.2239 25 11.5V13.5C25 13.7761 24.7761 14 24.5 14Z" fill="#909090"/>
</svg>
