<svg width="40" height="40" viewBox="0 0 40 40" fill="none" xmlns="http://www.w3.org/2000/svg">
<rect width="40" height="40" rx="20" fill="#F0F0F0"/>
<path fill-rule="evenodd" clip-rule="evenodd" d="M24 11H16C13.2386 11 11 13.2386 11 16V24C11 26.7614 13.2386 29 16 29H24C26.7614 29 29 26.7614 29 24V16C29 13.2386 26.7614 11 24 11ZM27.25 24C27.2445 25.7926 25.7926 27.2445 24 27.25H16C14.2074 27.2445 12.7555 25.7926 12.75 24V16C12.7555 14.2074 14.2074 12.7555 16 12.75H24C25.7926 12.7555 27.2445 14.2074 27.25 16V24ZM24.75 16.25C25.3023 16.25 25.75 15.8023 25.75 15.25C25.75 14.6977 25.3023 14.25 24.75 14.25C24.1977 14.25 23.75 14.6977 23.75 15.25C23.75 15.8023 24.1977 16.25 24.75 16.25ZM20 15.5C17.5147 15.5 15.5 17.5147 15.5 20C15.5 22.4853 17.5147 24.5 20 24.5C22.4853 24.5 24.5 22.4853 24.5 20C24.5027 18.8057 24.0294 17.6596 23.1849 16.8151C22.3404 15.9706 21.1943 15.4973 20 15.5ZM17.25 20C17.25 21.5188 18.4812 22.75 20 22.75C21.5188 22.75 22.75 21.5188 22.75 20C22.75 18.4812 21.5188 17.25 20 17.25C18.4812 17.25 17.25 18.4812 17.25 20Z" fill="#909090"/>
</svg>
