<svg width="21" height="20" viewBox="0 0 21 20" fill="none" xmlns="http://www.w3.org/2000/svg">
<path d="M9.73734 1.16789C10.0811 0.351427 11.2518 0.351428 11.5956 1.16789L13.6243 5.98678C13.7693 6.33098 14.097 6.56615 14.4731 6.59594L19.7391 7.01302C20.6313 7.08369 20.9931 8.18368 20.3133 8.75894L16.3012 12.1542C16.0147 12.3968 15.8895 12.7773 15.977 13.1399L17.2028 18.2165C17.4105 19.0767 16.4633 19.7565 15.6995 19.2957L11.191 16.5751C10.869 16.3808 10.464 16.3808 10.1419 16.5751L5.63345 19.2957C4.86957 19.7565 3.92241 19.0767 4.13009 18.2165L5.35588 13.1399C5.44344 12.7773 5.31828 12.3968 5.03171 12.1542L1.01952 8.75894C0.33974 8.18368 0.701526 7.08369 1.59375 7.01302L6.85981 6.59594C7.23596 6.56615 7.56361 6.33098 7.70852 5.98678L9.73734 1.16789Z" fill="#B0B0B0"/>
</svg>
