<svg width="40" height="40" viewBox="0 0 40 40" fill="none" xmlns="http://www.w3.org/2000/svg">
<rect width="40" height="40" rx="20" fill="#F0F0F0"/>
<path d="M28.9728 14.7174C28.5084 15.3369 27.947 15.8773 27.3103 16.3178C27.3103 16.4796 27.3103 16.6414 27.3103 16.8123C27.3154 19.7511 26.1415 22.5691 24.0518 24.6345C21.962 26.6999 19.1312 27.8399 16.1941 27.7989C14.496 27.8046 12.8197 27.4169 11.2964 26.6661C11.2143 26.6302 11.1613 26.549 11.1616 26.4593V26.3604C11.1616 26.2313 11.2662 26.1267 11.3953 26.1267C13.0644 26.0716 14.674 25.4929 15.9963 24.4724C14.4855 24.4419 13.1262 23.5469 12.5006 22.1707C12.469 22.0956 12.4788 22.0093 12.5266 21.9432C12.5743 21.8771 12.653 21.8407 12.7343 21.8471C13.1934 21.8932 13.6572 21.8505 14.1002 21.7212C12.4324 21.375 11.1792 19.9904 10.9999 18.2957C10.9935 18.2144 11.0299 18.1357 11.096 18.0879C11.1621 18.0402 11.2482 18.0303 11.3234 18.062C11.7709 18.2595 12.2541 18.3635 12.7432 18.3676C11.2818 17.4085 10.6506 15.5841 11.2066 13.9262C11.2639 13.7651 11.4018 13.6461 11.5695 13.6129C11.7372 13.5798 11.91 13.6373 12.0243 13.7644C13.9964 15.8633 16.706 17.114 19.5819 17.2528C19.5083 16.9589 19.4721 16.6568 19.4741 16.3537C19.501 14.7647 20.4842 13.3492 21.9634 12.7699C23.4425 12.1905 25.1249 12.562 26.223 13.7104C26.9714 13.5679 27.695 13.3165 28.3707 12.9642C28.4202 12.9333 28.483 12.9333 28.5325 12.9642C28.5634 13.0137 28.5634 13.0765 28.5325 13.126C28.2052 13.8755 27.6523 14.5041 26.9509 14.9242C27.5651 14.853 28.1685 14.7081 28.7482 14.4926C28.797 14.4594 28.8611 14.4594 28.9099 14.4926C28.9508 14.5113 28.9814 14.5471 28.9935 14.5904C29.0056 14.6337 28.998 14.6802 28.9728 14.7174Z" fill="#909090"/>
</svg>
